<?xml version="1.0" standalone="no"?>
<!DOCTYPE svg PUBLIC "-//W3C//DTD SVG 20010904//EN"
 "http://www.w3.org/TR/2001/REC-SVG-20010904/DTD/svg10.dtd">
<svg version="1.0" xmlns="http://www.w3.org/2000/svg"
 width="120.000000pt" height="120.000000pt" viewBox="0 0 120.000000 120.000000"
 preserveAspectRatio="xMidYMid meet">
<metadata>
Created by potrace 1.11, written by Peter Selinger 2001-2013
</metadata>
<g transform="translate(0.000000,120.000000) scale(0.100000,-0.100000)"
fill="#000000" stroke="none">
<path d="M440 1177 c-180 -54 -303 -160 -385 -332 -44 -93 -55 -150 -50 -270
8 -225 125 -407 328 -509 329 -166 727 4 840 359 31 99 31 262 -1 356 -63 186
-211 332 -394 391 -97 31 -243 33 -338 5z m420 -257 c15 -70 9 -183 -14 -255
-33 -106 -132 -236 -234 -307 -43 -29 -43 -29 -72 -11 -16 10 -61 38 -100 62
-41 25 -70 50 -70 60 1 41 34 152 66 219 44 92 152 204 234 245 55 26 159 58
171 51 3 -2 12 -30 19 -64z m-528 -336 c-11 -38 -21 -73 -23 -79 -2 -5 -26
-10 -54 -10 -36 0 -59 -6 -82 -23 -37 -27 -40 -24 -17 21 31 60 85 116 137
141 28 14 52 24 54 22 2 -2 -5 -34 -15 -72z m432 -257 c-4 -55 -50 -161 -81
-190 -17 -15 -18 -13 -15 34 3 37 -1 58 -18 86 l-22 37 29 20 c15 12 44 35 63
53 41 37 49 30 44 -40z m-313 27 c30 -20 56 -37 57 -39 2 -2 -8 -11 -22 -20
-25 -16 -27 -16 -70 11 -35 22 -43 33 -42 56 1 37 13 35 77 -8z"/>
<path d="M640 791 c-26 -25 -28 -32 -20 -61 20 -71 102 -83 135 -20 27 52 -11
110 -71 110 -9 0 -29 -13 -44 -29z"/>
<path d="M566 624 c-19 -18 -20 -28 -6 -55 20 -37 80 -18 80 26 0 42 -44 59
-74 29z"/>
</g>
</svg>
